<?xml version="1.0" encoding="utf-8"?>
<!-- Generator: Adobe Illustrator 27.9.0, SVG Export Plug-In . SVG Version: 6.00 Build 0)  -->
<svg version="1.1" id="Слой_1" xmlns="http://www.w3.org/2000/svg" xmlns:xlink="http://www.w3.org/1999/xlink" x="0px" y="0px"
	 viewBox="0 0 1920 1920" style="enable-background:new 0 0 1920 1920;" xml:space="preserve">
<polygon points="516.34,770.46 516.34,1150.37 340.16,1150.37 340.16,997.18 269.67,997.18 269.67,1150.37 93.5,1150.37 
	93.5,770.46 269.67,770.46 269.67,923.65 340.16,923.65 340.16,770.46 "/>
<path d="M539.29,770.46v379.91h422.83V770.46H539.29z M715.46,1076.84V843.99h70.49v232.85H715.46z"/>
<polygon points="1404.35,770.46 1404.35,1150.37 1228.25,1150.37 1228.18,1150.2 1157.69,971.26 1157.69,1150.37 981.52,1150.37 
	981.52,770.46 1157.63,770.46 1157.69,770.62 1228.18,949.56 1228.18,770.46 "/>
<polygon points="1157.69,770.46 1157.69,770.62 1157.63,770.46 "/>
<polygon points="1228.25,1150.37 1228.18,1150.37 1228.18,1150.2 "/>
<polygon points="1599.03,843.99 1599.03,922.52 1826.54,922.52 1826.54,996.05 1599.03,996.05 1599.03,1076.84 1826.54,1076.84 
	1826.54,1150.37 1422.86,1150.37 1422.86,770.46 1826.54,770.46 1826.54,843.99 "/>
</svg>
