mtllib Ресурс 2.mtl
# Vertex Positions: 
g groupNumber_0
v -6.14467 4.1098 -5.0126
v -6.14467 -4.1098 -5.0126
v -8.63297 -4.1098 -5.0126
v -8.63297 4.1098 -5.0126
v -6.14467 4.1098 5.0126
v -6.14467 -4.1098 5.0126
v -8.63297 -4.1098 5.0126
v -8.63297 4.1098 5.0126
v -6.14467 -7.10543e-15 0
v -7.38882 -4.1098 0
v -8.63297 -7.10543e-15 0
v -7.38882 4.1098 0
v 0.0741345 -6.70541 -5.0126
v 0.0741345 6.70541 -5.0126
v -14.8518 6.70541 -5.0126
v -14.8518 -6.70541 -5.0126
v 0.0741345 -6.70541 5.0126
v 0.0741345 6.70541 5.0126
v -14.8518 6.70541 5.0126
v -14.8518 -6.70541 5.0126
v 0.0741345 -7.10543e-15 0
v -7.38882 6.70541 0
v -14.8518 -7.10543e-15 0
v -7.38882 -6.70541 0


# Vertex Texture Coordinates :
vt 0.235806 0.292898
vt 0.235806 0.0702942
vt 0.168418 0.0702942
vt 0.168418 0.292898
vt 0.404224 0
vt 0.404224 0.363192
vt 0 0.363192
vt 0 0
vt 0.577576 0.292898
vt 0.577576 0.0702942
vt 0.644964 0.0702942
vt 0.644964 0.292898
vt 0.409158 0
vt 0.409158 0.363192
vt 0.813382 0.363192
vt 0.813382 0
vt 1.75814e-05 0.368207
vt 0.222621 0.368207
vt 0.818324 4.30121e-06
vt 0.885712 4.30121e-06
vt 1.75814e-05 0.644729
vt 0.222621 0.644729
vt 0.890662 4.30121e-06
vt 0.95805 4.30121e-06
vt 1.75814e-05 0.63971
vt 0.222621 0.63971
vt 0.818324 0.271507
vt 0.885712 0.271507
vt 1.75814e-05 0.916232
vt 0.222621 0.916232
vt 0.890662 0.271507
vt 0.95805 0.271507
vt 0.111319 0.503959
vt 0.852018 0.135756
vt 0.111319 0.780481
vt 0.924356 0.135756
vt 0.227611 0.368207
vt 0.590804 0.368207
vt 0.595776 0.368207
vt 1 0.368207
vt 0.227611 0.644729
vt 0.590804 0.644729
vt 0.595776 0.644729
vt 1 0.644729
vt 0.227611 0.63971
vt 0.590804 0.63971
vt 0.595776 0.63971
vt 1 0.63971
vt 0.227611 0.916232
vt 0.590804 0.916232
vt 0.595776 0.916232
vt 1 0.916232
vt 0.409208 0.503959
vt 0.797888 0.503959
vt 0.409208 0.780481
vt 0.797888 0.780481


# Vertex Surface Normals: 
vn 0 0 1
vn 0 0 -1
vn -1 0 0
vn -1 0 0
vn -1 0 0
vn -1 0 0
vn -1 0 0
vn 0 1 0
vn 0 1 0
vn 0 1 0
vn 0 1 0
vn 0 1 0
vn 1 0 0
vn 1 0 0
vn 1 0 0
vn 1 0 0
vn 1 0 0
vn 0 -1 0
vn 0 -1 0
vn 0 -1 0
vn 0 -1 0
vn 0 -1 0
vn 1 0 0
vn 1 0 0
vn 1 0 0
vn 1 0 0
vn 1 0 0
vn 0 1 0
vn 0 1 0
vn 0 1 0
vn 0 1 0
vn 0 1 0
vn -1 0 0
vn -1 0 0
vn -1 0 0
vn -1 0 0
vn -1 0 0
vn 0 -1 0
vn 0 -1 0
vn 0 -1 0
vn 0 -1 0
vn 0 -1 0


# Faces: 
usemtl material0
f 20/8/1 7/3/1 8/4/1
f 7/3/1 20/8/1 6/2/1
f 19/7/1 8/4/1 5/1/1
f 8/4/1 19/7/1 20/8/1
f 6/2/1 17/5/1 18/6/1
f 17/5/1 6/2/1 20/8/1
f 5/1/1 18/6/1 19/7/1
f 18/6/1 5/1/1 6/2/1
f 3/11/2 16/16/2 4/12/2
f 16/16/2 3/11/2 2/10/2
f 4/12/2 15/15/2 1/9/2
f 15/15/2 4/12/2 16/16/2
f 13/13/2 2/10/2 14/14/2
f 2/10/2 13/13/2 16/16/2
f 14/14/2 1/9/2 15/15/2
f 1/9/2 14/14/2 2/10/2
f 9/33/3 1/17/4 2/18/5
f 9/33/3 2/18/5 6/26/6
f 9/33/3 6/26/6 5/25/7
f 9/33/3 5/25/7 1/17/4
f 10/34/8 2/19/9 3/20/10
f 10/34/8 3/20/10 7/28/11
f 10/34/8 7/28/11 6/27/12
f 10/34/8 6/27/12 2/19/9
f 11/35/13 3/21/14 4/22/15
f 11/35/13 4/22/15 8/30/16
f 11/35/13 8/30/16 7/29/17
f 11/35/13 7/29/17 3/21/14
f 12/36/18 4/23/19 1/24/20
f 12/36/18 1/24/20 5/32/21
f 12/36/18 5/32/21 8/31/22
f 12/36/18 8/31/22 4/23/19
f 21/53/23 13/37/24 14/38/25
f 21/53/23 14/38/25 18/46/26
f 21/53/23 18/46/26 17/45/27
f 21/53/23 17/45/27 13/37/24
f 22/54/28 14/39/29 15/40/30
f 22/54/28 15/40/30 19/48/31
f 22/54/28 19/48/31 18/47/32
f 22/54/28 18/47/32 14/39/29
f 23/55/33 15/41/34 16/42/35
f 23/55/33 16/42/35 20/50/36
f 23/55/33 20/50/36 19/49/37
f 23/55/33 19/49/37 15/41/34
f 24/56/38 16/43/39 13/44/40
f 24/56/38 13/44/40 17/52/41
f 24/56/38 17/52/41 20/51/42
f 24/56/38 20/51/42 16/43/39

# Vertex Positions: 
g groupNumber_1
v 15.6849 -6.70541 -5.0126
v 15.6849 6.70541 -5.0126
v 9.46604 6.70541 -5.0126
v 9.46604 0.383189 -5.0126
v 6.97775 6.69977 -5.0126
v 0.758951 6.70541 -5.0126
v 0.758951 -6.70541 -5.0126
v 6.97775 -6.70541 -5.0126
v 6.97775 -0.382827 -5.0126
v 9.46604 -6.69941 -5.0126
v 15.6849 -6.70541 5.0126
v 15.6849 6.70541 5.0126
v 9.46604 6.70541 5.0126
v 9.46604 0.383189 5.0126
v 6.97775 6.69977 5.0126
v 0.758951 6.70541 5.0126
v 0.758951 -6.70541 5.0126
v 6.97775 -6.70541 5.0126
v 6.97775 -0.382827 5.0126
v 9.46604 -6.69941 5.0126
v 15.6849 -7.10543e-15 0
v 12.5754 6.70541 0
v 9.46604 3.5443 0
v 8.22189 3.54148 0
v 3.86835 6.70259 0
v 0.758951 -7.10543e-15 0
v 3.86835 -6.70541 0
v 6.97775 -3.54412 0
v 8.22189 -3.54112 0
v 12.5754 -6.70241 0


# Vertex Texture Coordinates :
vt 0.375959 0
vt 0.375959 0.337797
vt 0.219317 0.337797
vt 0.219317 0.17855
vt 0.156642 0.337655
vt 0 0.337797
vt 0 0
vt 0.156642 0
vt 0.156642 0.159256
vt 0.219317 0.000151086
vt 0.380549 0
vt 0.380549 0.337797
vt 0.537191 0.337797
vt 0.537191 0.17855
vt 0.599867 0.337655
vt 0.756508 0.337797
vt 0.756508 0
vt 0.599867 0
vt 0.599867 0.159256
vt 0.537191 0.000151086
vt 3.55241e-05 0.342461
vt 0.337832 0.342461
vt 0.761117 4.00657e-06
vt 0.917759 4.00657e-06
vt 1.96236e-06 0.599648
vt 0.159248 0.599648
vt 0.163883 0.599648
vt 0.334887 0.599648
vt 0.342477 0.342461
vt 0.499118 0.342461
vt 0.503762 0.342461
vt 0.841559 0.342461
vt 0.342477 0.599648
vt 0.499118 0.599648
vt 0.50377 0.599648
vt 0.663026 0.599648
vt 0.667702 0.599648
vt 0.838706 0.599648
vt 0.843358 0.599648
vt 1 0.599648
vt 3.55241e-05 0.59498
vt 0.337832 0.59498
vt 0.761117 0.252523
vt 0.917759 0.252523
vt 1.96236e-06 0.852167
vt 0.159248 0.852167
vt 0.163883 0.852167
vt 0.334887 0.852167
vt 0.342477 0.59498
vt 0.499118 0.59498
vt 0.503762 0.59498
vt 0.841559 0.59498
vt 0.342477 0.852167
vt 0.499118 0.852167
vt 0.50377 0.852167
vt 0.663026 0.852167
vt 0.667702 0.852167
vt 0.838706 0.852167
vt 0.843358 0.852167
vt 1 0.852167
vt 0.168934 0.468721
vt 0.839438 0.126263
vt 0.0796252 0.725908
vt 0.249385 0.725908
vt 0.420797 0.468721
vt 0.672661 0.468721
vt 0.420797 0.725908
vt 0.583398 0.725908
vt 0.753204 0.725908
vt 0.921679 0.725908


# Vertex Surface Normals: 
vn 0 0 1
vn 0 0 -1
vn 1 0 0
vn 1 0 0
vn 1 0 0
vn 1 0 0
vn 1 0 0
vn 0 1 0
vn 0 1 0
vn 0 1 0
vn 0 1 0
vn 0 1 0
vn -1 0 0
vn -1 0 0
vn -1 0 0
vn -1 0 0
vn -1 0 0
vn 0.930411 0.366517 0
vn 0.930411 0.366517 0
vn 0.930411 0.366517 0
vn 0.930411 0.366517 0
vn 0.930411 0.366517 0
vn 0.000906329 1 0
vn 0.000906329 1 0
vn 0.000906329 1 0
vn 0.000906329 1 0
vn 0.000906329 1 0
vn -1 0 0
vn -1 0 0
vn -1 0 0
vn -1 0 0
vn -1 0 0
vn 0 -1 0
vn 0 -1 0
vn 0 -1 0
vn 0 -1 0
vn 0 -1 0
vn 1 0 0
vn 1 0 0
vn 1 0 0
vn 1 0 0
vn 1 0 0
vn -0.930411 -0.366517 0
vn -0.930411 -0.366517 0
vn -0.930411 -0.366517 0
vn -0.930411 -0.366517 0
vn -0.930411 -0.366517 0
vn -0.000964531 -1 0
vn -0.000964531 -1 -1.44137e-16
vn -0.000964531 -1 -1.44137e-16
vn -0.000964531 -1 1.44137e-16
vn -0.000964531 -1 1.44137e-16


# Faces: 
usemtl material1
f 41/63/43 42/64/43 43/65/43
f 40/62/43 43/65/43 39/61/43
f 43/65/43 40/62/43 41/63/43
f 39/61/43 43/65/43 38/60/43
f 44/66/43 35/57/43 38/60/43
f 38/60/43 36/58/43 37/59/43
f 36/58/43 38/60/43 35/57/43
f 44/66/43 38/60/43 43/65/43
f 32/74/44 31/73/44 33/75/44
f 33/75/44 30/72/44 29/71/44
f 30/72/44 33/75/44 31/73/44
f 33/75/44 29/71/44 28/70/44
f 25/67/44 34/76/44 28/70/44
f 26/68/44 28/70/44 27/69/44
f 28/70/44 26/68/44 25/67/44
f 28/70/44 34/76/44 33/75/44
f 45/117/45 25/77/46 26/78/47
f 45/117/45 26/78/47 36/98/48
f 45/117/45 36/98/48 35/97/49
f 45/117/45 35/97/49 25/77/46
f 46/118/50 26/79/51 27/80/52
f 46/118/50 27/80/52 37/100/53
f 46/118/50 37/100/53 36/99/54
f 46/118/50 36/99/54 26/79/51
f 47/119/55 27/81/56 28/82/57
f 47/119/55 28/82/57 38/102/58
f 47/119/55 38/102/58 37/101/59
f 47/119/55 37/101/59 27/81/56
f 48/120/60 28/83/61 29/84/62
f 48/120/60 29/84/62 39/104/63
f 48/120/60 39/104/63 38/103/64
f 48/120/60 38/103/64 28/83/61
f 49/121/65 29/85/66 30/86/67
f 49/121/65 30/86/67 40/106/68
f 49/121/65 40/106/68 39/105/69
f 49/121/65 39/105/69 29/85/66
f 50/122/70 30/87/71 31/88/72
f 50/122/70 31/88/72 41/108/73
f 50/122/70 41/108/73 40/107/74
f 50/122/70 40/107/74 30/87/71
f 51/123/75 31/89/76 32/90/77
f 51/123/75 32/90/77 42/110/78
f 51/123/75 42/110/78 41/109/79
f 51/123/75 41/109/79 31/89/76
f 52/124/80 32/91/81 33/92/82
f 52/124/80 33/92/82 43/112/83
f 52/124/80 43/112/83 42/111/84
f 52/124/80 42/111/84 32/91/81
f 53/125/85 33/93/86 34/94/87
f 53/125/85 34/94/87 44/114/88
f 53/125/85 44/114/88 43/113/89
f 53/125/85 43/113/89 33/93/86
f 54/126/90 34/95/91 25/96/92
f 54/126/90 25/96/92 35/116/93
f 54/126/90 35/116/93 44/115/94
f 54/126/90 44/115/94 34/95/91

# Vertex Positions: 
g groupNumber_2
v -15.6619 -6.70541 -5.0126
v -15.6619 6.70541 -5.0126
v -21.8811 6.70541 -5.0126
v -21.8811 1.2978 -5.0126
v -24.3694 1.2978 -5.0126
v -24.3694 6.70541 -5.0126
v -30.5882 6.70541 -5.0126
v -30.5882 -6.70541 -5.0126
v -24.3694 -6.70541 -5.0126
v -24.3694 -1.2978 -5.0126
v -21.8811 -1.2978 -5.0126
v -21.8811 -6.70541 -5.0126
v -15.6619 -6.70541 5.0126
v -15.6619 6.70541 5.0126
v -21.8811 6.70541 5.0126
v -21.8811 1.2978 5.0126
v -24.3694 1.2978 5.0126
v -24.3694 6.70541 5.0126
v -30.5882 6.70541 5.0126
v -30.5882 -6.70541 5.0126
v -24.3694 -6.70541 5.0126
v -24.3694 -1.2978 5.0126
v -21.8811 -1.2978 5.0126
v -21.8811 -6.70541 5.0126
v -15.6619 -7.10543e-15 -2.66454e-15
v -18.7715 6.70541 -2.66454e-15
v -21.8811 4.0016 -2.66454e-15
v -23.1252 1.2978 -2.66454e-15
v -24.3694 4.0016 -2.66454e-15
v -27.4788 6.70541 -2.66454e-15
v -30.5882 -7.10543e-15 -2.66454e-15
v -27.4788 -6.70541 -2.66454e-15
v -24.3694 -4.0016 -2.66454e-15
v -23.1252 -1.2978 -2.66454e-15
v -21.8811 -4.0016 -2.66454e-15
v -18.7715 -6.70541 -2.66454e-15


# Vertex Texture Coordinates :
vt 0.382712 0
vt 0.382712 0.343856
vt 0.223252 0.343856
vt 0.223252 0.205204
vt 0.159451 0.205204
vt 0.159451 0.343856
vt 0 0.343856
vt 0 0
vt 0.159451 0
vt 0.159451 0.138652
vt 0.223252 0.138652
vt 0.223252 0
vt 0.387384 0
vt 0.387384 0.343856
vt 0.546844 0.343856
vt 0.546844 0.205204
vt 0.610644 0.205204
vt 0.610644 0.343856
vt 0.770095 0.343856
vt 0.770095 0
vt 0.610644 0
vt 0.610644 0.138652
vt 0.546844 0.138652
vt 0.546844 0
vt 4.01577e-05 0.348611
vt 0.343896 0.348611
vt 0.774784 3.06989e-06
vt 0.934244 3.06989e-06
vt 3.12988e-06 0.610417
vt 0.138655 0.610417
vt 0.143338 0.610417
vt 0.207138 0.610417
vt 0.348611 0.348611
vt 0.487263 0.348611
vt 0.49196 0.348611
vt 0.651411 0.348611
vt 0.656144 0.348611
vt 1 0.348611
vt 0.49196 0.610417
vt 0.651411 0.610417
vt 0.348611 0.610417
vt 0.487263 0.610417
vt 0.211826 0.610417
vt 0.275627 0.610417
vt 0.656107 0.610417
vt 0.794759 0.610417
vt 0.799451 0.610417
vt 0.958911 0.610417
vt 4.01577e-05 0.605659
vt 0.343896 0.605659
vt 0.774784 0.257051
vt 0.934244 0.257051
vt 3.12988e-06 0.867465
vt 0.138655 0.867465
vt 0.143338 0.867465
vt 0.207138 0.867465
vt 0.348611 0.605659
vt 0.487263 0.605659
vt 0.49196 0.605659
vt 0.651411 0.605659
vt 0.656144 0.605659
vt 1 0.605659
vt 0.49196 0.867465
vt 0.651411 0.867465
vt 0.348611 0.867465
vt 0.487263 0.867465
vt 0.211826 0.867465
vt 0.275627 0.867465
vt 0.656107 0.867465
vt 0.794759 0.867465
vt 0.799451 0.867465
vt 0.958911 0.867465
vt 0.171968 0.477135
vt 0.854514 0.128527
vt 0.0693291 0.738941
vt 0.175238 0.738941
vt 0.417937 0.477135
vt 0.571685 0.477135
vt 0.828072 0.477135
vt 0.571685 0.738941
vt 0.417937 0.738941
vt 0.243727 0.738941
vt 0.725433 0.738941
vt 0.879181 0.738941


# Vertex Surface Normals: 
vn 0 0 1
vn 0 0 -1
vn 1 0 0
vn 1 0 0
vn 1 0 0
vn 1 0 0
vn 1 0 0
vn 0 1 0
vn 0 1 0
vn 0 1 0
vn 0 1 0
vn 0 1 0
vn -1 0 0
vn -1 0 0
vn -1 0 0
vn -1 0 0
vn -1 0 0
vn 0 1 0
vn 0 1 0
vn 0 1 0
vn 0 1 0
vn 0 1 0
vn 1 0 0
vn 1 0 0
vn 1 0 0
vn 1 0 0
vn 1 0 0
vn 0 1 0
vn 0 1 0
vn 0 1 0
vn 0 1 0
vn 0 1 0
vn -1 0 0
vn -1 0 0
vn -1 0 0
vn -1 0 0
vn -1 0 0
vn 0 -1 0
vn 0 -1 0
vn 0 -1 0
vn 0 -1 0
vn 0 -1 0
vn 1 0 0
vn 1 0 0
vn 1 0 0
vn 1 0 0
vn 1 0 0
vn 0 -1 0
vn 0 -1 0
vn 0 -1 0
vn 0 -1 0
vn 0 -1 0
vn -1 0 0
vn -1 0 0
vn -1 0 0
vn -1 0 0
vn -1 0 0
vn 0 -1 0
vn 0 -1 0
vn 0 -1 0
vn 0 -1 0
vn 0 -1 0


# Faces: 
usemtl material2
f 74/134/95 75/135/95 76/136/95
f 74/134/95 76/136/95 71/131/95
f 73/133/95 71/131/95 72/132/95
f 71/131/95 73/133/95 74/134/95
f 76/136/95 77/137/95 71/131/95
f 78/138/95 67/127/95 77/137/95
f 77/137/95 67/127/95 68/128/95
f 70/130/95 68/128/95 69/129/95
f 68/128/95 70/130/95 77/137/95
f 77/137/95 70/130/95 71/131/95
f 63/147/96 62/146/96 64/148/96
f 64/148/96 62/146/96 59/143/96
f 59/143/96 61/145/96 60/144/96
f 61/145/96 59/143/96 62/146/96
f 65/149/96 64/148/96 59/143/96
f 55/139/96 66/150/96 65/149/96
f 55/139/96 65/149/96 56/140/96
f 56/140/96 58/142/96 57/141/96
f 58/142/96 56/140/96 65/149/96
f 58/142/96 65/149/96 59/143/96
f 79/199/97 55/151/98 56/152/99
f 79/199/97 56/152/99 68/176/100
f 79/199/97 68/176/100 67/175/101
f 79/199/97 67/175/101 55/151/98
f 80/200/102 56/153/103 57/154/104
f 80/200/102 57/154/104 69/178/105
f 80/200/102 69/178/105 68/177/106
f 80/200/102 68/177/106 56/153/103
f 81/201/107 57/155/108 58/156/109
f 81/201/107 58/156/109 70/180/110
f 81/201/107 70/180/110 69/179/111
f 81/201/107 69/179/111 57/155/108
f 82/202/112 58/157/113 59/158/114
f 82/202/112 59/158/114 71/182/115
f 82/202/112 71/182/115 70/181/116
f 82/202/112 70/181/116 58/157/113
f 83/203/117 59/159/118 60/160/119
f 83/203/117 60/160/119 72/184/120
f 83/203/117 72/184/120 71/183/121
f 83/203/117 71/183/121 59/159/118
f 84/204/122 60/161/123 61/162/124
f 84/204/122 61/162/124 73/186/125
f 84/204/122 73/186/125 72/185/126
f 84/204/122 72/185/126 60/161/123
f 85/205/127 61/163/128 62/164/129
f 85/205/127 62/164/129 74/188/130
f 85/205/127 74/188/130 73/187/131
f 85/205/127 73/187/131 61/163/128
f 86/206/132 62/165/133 63/166/134
f 86/206/132 63/166/134 75/190/135
f 86/206/132 75/190/135 74/189/136
f 86/206/132 74/189/136 62/165/133
f 87/207/137 63/167/138 64/168/139
f 87/207/137 64/168/139 76/192/140
f 87/207/137 76/192/140 75/191/141
f 87/207/137 75/191/141 63/167/138
f 88/208/142 64/169/143 65/170/144
f 88/208/142 65/170/144 77/194/145
f 88/208/142 77/194/145 76/193/146
f 88/208/142 76/193/146 64/169/143
f 89/209/147 65/171/148 66/172/149
f 89/209/147 66/172/149 78/196/150
f 89/209/147 78/196/150 77/195/151
f 89/209/147 77/195/151 65/171/148
f 90/210/152 66/173/153 55/174/154
f 90/210/152 55/174/154 67/198/155
f 90/210/152 67/198/155 78/197/156
f 90/210/152 78/197/156 66/173/153

# Vertex Positions: 
g groupNumber_3
v 30.5882 4.1098 -5.0126
v 30.5882 6.70541 -5.0126
v 16.3382 6.70541 -5.0126
v 16.3382 -6.70541 -5.0126
v 30.5882 -6.70541 -5.0126
v 30.5882 -4.1098 -5.0126
v 22.557 -4.1098 -5.0126
v 22.557 -1.25792 -5.0126
v 30.5882 -1.25792 -5.0126
v 30.5882 1.3377 -5.0126
v 22.557 1.3377 -5.0126
v 22.557 4.1098 -5.0126
v 30.5882 4.1098 5.0126
v 30.5882 6.70541 5.0126
v 16.3382 6.70541 5.0126
v 16.3382 -6.70541 5.0126
v 30.5882 -6.70541 5.0126
v 30.5882 -4.1098 5.0126
v 22.557 -4.1098 5.0126
v 22.557 -1.25792 5.0126
v 30.5882 -1.25792 5.0126
v 30.5882 1.3377 5.0126
v 22.557 1.3377 5.0126
v 22.557 4.1098 5.0126
v 30.5882 5.40761 -4.44089e-15
v 23.4632 6.70541 -4.44089e-15
v 16.3382 0 -4.44089e-15
v 23.4632 -6.70541 -4.44089e-15
v 30.5882 -5.40761 -4.44089e-15
v 26.5726 -4.1098 -4.44089e-15
v 22.557 -2.68386 -4.44089e-15
v 26.5726 -1.25792 -4.44089e-15
v 30.5882 0.0398935 -4.44089e-15
v 26.5726 1.3377 -4.44089e-15
v 22.557 2.72375 -4.44089e-15
v 26.5726 4.1098 -4.44089e-15


# Vertex Texture Coordinates :
vt 0.354543 0.269086
vt 0.354543 0.333666
vt 0 0.333666
vt 0 0
vt 0.354543 0
vt 0.354543 0.0645795
vt 0.154726 0.0645795
vt 0.154726 0.135535
vt 0.354543 0.135535
vt 0.354543 0.200115
vt 0.154726 0.200115
vt 0.154726 0.269086
vt 0.358871 0.269086
vt 0.358871 0.333666
vt 0.713414 0.333666
vt 0.713414 0
vt 0.358871 0
vt 0.358871 0.0645795
vt 0.558688 0.0645795
vt 0.558688 0.135535
vt 0.358871 0.135535
vt 0.358871 0.200115
vt 0.558688 0.200115
vt 0.558688 0.269086
vt 0.717781 6.98891e-06
vt 0.782361 6.98891e-06
vt 0 0.338017
vt 0.354543 0.338017
vt 8.26376e-06 0.591806
vt 0.333674 0.591806
vt 0.358871 0.338017
vt 0.713414 0.338017
vt 0.717781 0.338017
vt 0.782361 0.338017
vt 0.786752 0.338017
vt 0.986568 0.338017
vt 0.786739 6.98891e-06
vt 0.857695 6.98891e-06
vt 0.358894 0.591806
vt 0.558711 0.591806
vt 0.862074 6.98891e-06
vt 0.926654 6.98891e-06
vt 0.563085 0.591806
vt 0.762902 0.591806
vt 0.931029 6.98891e-06
vt 1 6.98891e-06
vt 0.767276 0.591806
vt 0.967093 0.591806
vt 0.717781 0.249438
vt 0.782361 0.249438
vt 0 0.587448
vt 0.354543 0.587448
vt 8.26376e-06 0.841237
vt 0.333674 0.841237
vt 0.358871 0.587448
vt 0.713414 0.587448
vt 0.717781 0.587448
vt 0.782361 0.587448
vt 0.786752 0.587448
vt 0.986568 0.587448
vt 0.786739 0.249438
vt 0.857695 0.249438
vt 0.358894 0.841237
vt 0.558711 0.841237
vt 0.862074 0.249438
vt 0.926654 0.249438
vt 0.563085 0.841237
vt 0.762902 0.841237
vt 0.931029 0.249438
vt 1 0.249438
vt 0.767276 0.841237
vt 0.967093 0.841237
vt 0.750071 0.124722
vt 0.177271 0.462732
vt 0.166841 0.716521
vt 0.536142 0.462732
vt 0.750071 0.462732
vt 0.88666 0.462732
vt 0.822217 0.124722
vt 0.458802 0.716521
vt 0.894364 0.124722
vt 0.662993 0.716521
vt 0.965515 0.124722
vt 0.867184 0.716521


# Vertex Surface Normals: 
vn 0 0 1
vn 0 0 -1
vn 1 0 0
vn 1 0 0
vn 1 0 0
vn 1 0 0
vn 1 0 0
vn 0 1 0
vn 0 1 0
vn 0 1 0
vn 0 1 0
vn 0 1 0
vn -1 0 0
vn -1 0 0
vn -1 0 0
vn -1 0 0
vn -1 0 0
vn 0 -1 0
vn 0 -1 0
vn 0 -1 0
vn 0 -1 0
vn 0 -1 0
vn 1 0 0
vn 1 0 0
vn 1 0 0
vn 1 0 0
vn 1 0 0
vn 0 1 0
vn 0 1 0
vn 0 1 0
vn 0 1 0
vn 0 1 0
vn 1 0 0
vn 1 0 0
vn 1 0 0
vn 1 0 0
vn 1 0 0
vn 0 -1 0
vn 0 -1 0
vn 0 -1 0
vn 0 -1 0
vn 0 -1 0
vn 1 0 0
vn 1 0 0
vn 1 0 0
vn 1 0 0
vn 1 0 0
vn 0 1 0
vn 0 1 0
vn 0 1 0
vn 0 1 0
vn 0 1 0
vn 1 0 0
vn 1 0 0
vn 1 0 0
vn 1 0 0
vn 1 0 0
vn 0 -1 0
vn 0 -1 0
vn 0 -1 0
vn 0 -1 0
vn 0 -1 0


# Faces: 
usemtl material3
f 106/214/157 109/217/157 110/218/157
f 109/217/157 106/214/157 107/215/157
f 106/214/157 110/218/157 105/213/157
f 105/213/157 113/221/157 114/222/157
f 113/221/157 105/213/157 110/218/157
f 105/213/157 114/222/157 104/212/157
f 110/218/157 111/219/157 113/221/157
f 107/215/157 108/216/157 109/217/157
f 103/211/157 104/212/157 114/222/157
f 111/219/157 112/220/157 113/221/157
f 97/229/158 94/226/158 98/230/158
f 94/226/158 97/229/158 95/227/158
f 98/230/158 94/226/158 93/225/158
f 101/233/158 93/225/158 102/234/158
f 93/225/158 101/233/158 98/230/158
f 102/234/158 93/225/158 92/224/158
f 99/231/158 98/230/158 101/233/158
f 96/228/158 95/227/158 97/229/158
f 92/224/158 91/223/158 102/234/158
f 100/232/158 99/231/158 101/233/158
f 115/283/159 91/235/160 92/236/161
f 115/283/159 92/236/161 104/260/162
f 115/283/159 104/260/162 103/259/163
f 115/283/159 103/259/163 91/235/160
f 116/284/164 92/237/165 93/238/166
f 116/284/164 93/238/166 105/262/167
f 116/284/164 105/262/167 104/261/168
f 116/284/164 104/261/168 92/237/165
f 117/285/169 93/239/170 94/240/171
f 117/285/169 94/240/171 106/264/172
f 117/285/169 106/264/172 105/263/173
f 117/285/169 105/263/173 93/239/170
f 118/286/174 94/241/175 95/242/176
f 118/286/174 95/242/176 107/266/177
f 118/286/174 107/266/177 106/265/178
f 118/286/174 106/265/178 94/241/175
f 119/287/179 95/243/180 96/244/181
f 119/287/179 96/244/181 108/268/182
f 119/287/179 108/268/182 107/267/183
f 119/287/179 107/267/183 95/243/180
f 120/288/184 96/245/185 97/246/186
f 120/288/184 97/246/186 109/270/187
f 120/288/184 109/270/187 108/269/188
f 120/288/184 108/269/188 96/245/185
f 121/289/189 97/247/190 98/248/191
f 121/289/189 98/248/191 110/272/192
f 121/289/189 110/272/192 109/271/193
f 121/289/189 109/271/193 97/247/190
f 122/290/194 98/249/195 99/250/196
f 122/290/194 99/250/196 111/274/197
f 122/290/194 111/274/197 110/273/198
f 122/290/194 110/273/198 98/249/195
f 123/291/199 99/251/200 100/252/201
f 123/291/199 100/252/201 112/276/202
f 123/291/199 112/276/202 111/275/203
f 123/291/199 111/275/203 99/251/200
f 124/292/204 100/253/205 101/254/206
f 124/292/204 101/254/206 113/278/207
f 124/292/204 113/278/207 112/277/208
f 124/292/204 112/277/208 100/253/205
f 125/293/209 101/255/210 102/256/211
f 125/293/209 102/256/211 114/280/212
f 125/293/209 114/280/212 113/279/213
f 125/293/209 113/279/213 101/255/210
f 126/294/214 102/257/215 91/258/216
f 126/294/214 91/258/216 103/282/217
f 126/294/214 103/282/217 114/281/218
f 126/294/214 114/281/218 102/257/215
